<?xml version="1.0" encoding="UTF-8" standalone="no"?>
<!-- Created with Inkscape (http://www.inkscape.org/) -->

<svg
   width="120.18296mm"
   height="34.323452mm"
   viewBox="0 0 120.18296 34.323451"
   version="1.1"
   id="svg955"
   inkscape:version="1.3 (0e150ed6c4, 2023-07-21)"
   xml:space="preserve"
   inkscape:export-filename="heading.png"
   inkscape:export-xdpi="96"
   inkscape:export-ydpi="96"
   sodipodi:docname="heading.svg"
   xmlns:inkscape="http://www.inkscape.org/namespaces/inkscape"
   xmlns:sodipodi="http://sodipodi.sourceforge.net/DTD/sodipodi-0.dtd"
   xmlns="http://www.w3.org/2000/svg"
   xmlns:svg="http://www.w3.org/2000/svg"><sodipodi:namedview
     id="namedview957"
     pagecolor="#ffffff"
     bordercolor="#666666"
     borderopacity="1.0"
     inkscape:showpageshadow="2"
     inkscape:pageopacity="0.0"
     inkscape:pagecheckerboard="0"
     inkscape:deskcolor="#d1d1d1"
     inkscape:document-units="mm"
     showgrid="false"
     inkscape:zoom="3.38328"
     inkscape:cx="98.425196"
     inkscape:cy="124.73103"
     inkscape:window-width="3840"
     inkscape:window-height="2081"
     inkscape:window-x="-9"
     inkscape:window-y="-9"
     inkscape:window-maximized="1"
     inkscape:current-layer="layer1" /><defs
     id="defs952" /><g
     inkscape:label="Layer 1"
     inkscape:groupmode="layer"
     id="layer1"
     transform="translate(73.30386,-96.762599)"><rect
       style="fill:#ffff00;fill-rule:evenodd;stroke:#000000;stroke-width:0.0999996;stroke-dasharray:none"
       id="rect1"
       width="42.534023"
       height="4.9770064"
       x="-73.25386"
       y="96.812599" /><path
       style="fill:#ffcc00;stroke:none;stroke-width:0.264582px;stroke-linecap:butt;stroke-linejoin:miter;stroke-opacity:1"
       d="m -50.818914,114.57561 -1.663893,-8.63851 9.659826,2.63959 5.546311,-5.17643 7.117768,3.70763 9.521166,-4.94253 9.706047,5.07084 7.4413017,-3.24855 8.3194683,4.59361 11.092618,-5.32716 6.054726,1.62944 9.706046,-3.99187 1.24792,4.63544 13.496024,-4.04955 -8.458125,6.77357 c 0,0 8.273249,5.25191 8.458125,5.25512 0.184875,0.004 -10.168237,3.53069 -10.168237,3.53069 l 9.844705,6.9682 -10.029584,0.11399 1.155484,4.67502 -12.49831,-2.49862 -4.668142,2.80244 -6.42448,-3.03648 0.752731,4.20484 -10.5783285,-3.71617 -4.8530228,2.79921 -2.079867,-2.46661 -9.5211667,3.02168 0.323536,-3.20751 -11.416158,2.89109 1.063042,-3.97736 -8.689221,3.35044 2.033646,-4.08406 -15.021259,2.95199 2.911814,-2.70938 -10.907747,3.35305 1.201701,-3.23344 -11.739693,1.07292 10.861527,-5.86671 -7.256424,-4.45154 z"
       id="path26"
       sodipodi:nodetypes="cccccccccccccccsccccccccccccccccccccccccc" /><g
       id="g27"
       style="fill:#ff0000;stroke-width:5.04397"
       transform="matrix(0.19915379,0,0,0.19736301,-53.362044,80.258904)"><path
         style="fill:#ff0000;stroke:none;stroke-width:1.33455px;stroke-linecap:butt;stroke-linejoin:miter;stroke-opacity:1"
         d="m 38.58381,162.63138 -14.227663,2.81531 -5.616414,54.9925 16.338244,-3.8476 8.269448,-26.08859 -3.230504,27.49625 16.584991,-4.59835 16.220768,-54.99249 -13.92874,3.19069 -11.187646,40.07132 6.265002,-45.04505 -8.627469,2.15841 -10.674229,36.97448 z"
         id="path4" /><path
         style="fill:#ff0000;stroke:none;stroke-width:1.33455px;stroke-linecap:butt;stroke-linejoin:miter;stroke-opacity:1"
         d="m 78.433834,151.08859 14.451952,-2.90916 -8.070572,27.49624 6.944444,-1.78303 5.3491,-23.89264 14.451952,-3.50976 -13.701202,55.18018 -15.578077,5.3491 5.63063,-22.14715 -5.912162,2.06456 -3.19069,17.26727 -14.451952,4.22297 c 0,0 14.076577,-57.71396 14.076577,-57.33858 z"
         id="path5" /><path
         id="path6"
         style="fill:#ff0000;stroke:none;stroke-width:1.33455px;stroke-linecap:butt;stroke-linejoin:miter;stroke-opacity:1"
         d="m 141.36013,153.90378 -22.89783,4.59869 -23.554632,58.3706 16.610352,-3.19051 2.40399,-7.45122 5.05344,-1.03611 -2.20245,10.64586 16.89199,-5.72472 z m -13.94799,10.51047 -6.21564,30.0452 -3.76876,0.90382 z" /><path
         style="fill:#ff0000;stroke:none;stroke-width:1.33455px;stroke-linecap:butt;stroke-linejoin:miter;stroke-opacity:1"
         d="m 182.14954,154.56081 -11.5428,10.60435 c -2.30146,-14.50825 -15.09639,0.0641 -17.68089,14.67473 -1.95795,11.06872 -0.58916,20.79498 13.17639,9.16161 l 3.37838,10.60436 c -25.93244,28.88622 -38.19461,8.77019 -26.97037,-24.04194 9.23018,-26.98281 35.51163,-39.77809 39.63929,-21.00311 z"
         id="path7"
         sodipodi:nodetypes="ccsccsc" /><path
         style="fill:#ff0000;stroke:none;stroke-width:1.33455px;stroke-linecap:butt;stroke-linejoin:miter;stroke-opacity:1"
         d="m 185.87275,164.22672 14.07658,-1.78303 -4.97373,11.91817 15.20271,-12.66892 9.10285,6.66291 -20.45796,16.51652 5.25526,28.76037 -15.48424,7.93257 -0.28153,-29.65465 -7.78904,25.13814 -15.01501,3.56336 z"
         id="path8" /><path
         id="path9"
         style="fill:#ff0000;stroke:none;stroke-width:1.33455px;stroke-linecap:butt;stroke-linejoin:miter;stroke-opacity:1"
         d="m 291.95214,153.90287 -26.4272,4.96392 -27.18524,63.00645 19.17059,-3.4439 2.77453,-8.043 5.83236,-1.1184 -2.54193,11.49136 19.49565,-6.17938 z m -16.09788,11.34522 -7.17369,32.43142 -4.34966,0.9756 z" /><path
         id="path10"
         style="fill:#ff0000;stroke:none;stroke-width:1.33455px;stroke-linecap:butt;stroke-linejoin:miter;stroke-opacity:1"
         d="m 357.80541,150.82804 c -5.40976,0.12107 -12.70886,2.26243 -22.00946,5.81463 l -16.19929,56.3857 14.75189,-3.5636 5.39125,-18.80092 c 13.35743,3.52114 26.24626,-3.86274 29.88772,-20.78375 3.03605,-14.1078 -2.80586,-19.25385 -11.82211,-19.05206 z m -14.65017,27.92336 4.5263,-15.78405 c 20.91643,-7.90861 12.22282,20.73878 -4.5263,15.78405 z"
         sodipodi:nodetypes="sccccssccc" /><path
         style="fill:#ff0000;stroke:none;stroke-width:1.33455px;stroke-linecap:butt;stroke-linejoin:miter;stroke-opacity:1"
         d="m 360.65346,226.21868 33.50225,-6.75675 3.4583,-14.11153 -20.31326,5.41167 11.88124,-44.79113 -14.45196,2.90916 z"
         id="path11"
         sodipodi:nodetypes="ccccccc" /><path
         style="fill:#ff0000;stroke:none;stroke-width:1.33455px;stroke-linecap:butt;stroke-linejoin:miter;stroke-opacity:1"
         d="m 440.99619,158.73695 -10.51052,9.67483 c -3.54636,-13.23654 -15.32298,3.9147 -16.23657,13.38842 -0.97384,10.0985 1.23115,18.97221 13.85405,8.35855 l 4.2726,9.67484 c -23.17148,26.35422 -37.07581,8.00145 -28.81907,-21.93455 6.78989,-24.61764 31.71147,-36.29136 37.43951,-19.16209 z"
         id="path12"
         sodipodi:nodetypes="ccsccsc" /><path
         style="fill:#ff0000;stroke:none;stroke-width:1.33455px;stroke-linecap:butt;stroke-linejoin:miter;stroke-opacity:1"
         d="m 215.18188,183.51351 34.05405,-7.61254 -8.40499,16.6666 -29.02744,0.13513 z"
         id="path13" /><path
         style="fill:#ff0000;stroke:none;stroke-width:1.33455px;stroke-linecap:butt;stroke-linejoin:miter;stroke-opacity:1"
         d="m 321.95253,173.44504 -25.80227,2.81566 -4.42244,19.99955 26.63009,-11.29171 z"
         id="path14" /></g><path
       id="path25"
       style="fill:none;stroke:#000000;stroke-width:0.2;stroke-linecap:butt;stroke-linejoin:miter;stroke-dasharray:none;stroke-opacity:1"
       d="m 10.802527,114.92517 -5.13862,0.5557 -0.8807464,3.94718 5.3034844,-2.22857 z m -21.26378,1.98714 6.7819937,-1.50243 -1.673885,3.28937 -5.7809257,0.0267 z m 44.971775,-4.88997 -2.093209,1.90945 c -0.706272,-2.61241 -3.05163,0.77262 -3.233574,2.64238 -0.193945,1.99307 0.245188,3.74441 2.759086,1.64967 l 0.850903,1.90945 c -4.614687,5.20135 -7.383787,1.57919 -5.739426,-4.32907 1.352232,-4.85861 6.315461,-7.16257 7.45622,-3.78188 z m -16.000559,13.31839 6.672102,-1.33353 0.688731,-2.78509 -4.045461,1.06806 2.366193,-8.84011 -2.878163,0.57416 z m -0.5672,-14.87932 c -1.077374,0.0239 -2.531016,0.44652 -4.383266,1.14759 l -3.226151,11.12845 2.937896,-0.70332 1.073687,-3.71061 c 2.660182,0.69495 5.227043,-0.76236 5.952253,-4.10194 0.60464,-2.78436 -0.558799,-3.8 -2.354419,-3.76017 z m -2.917637,5.51104 0.901432,-3.11519 c 4.165585,-1.56087 2.43422,4.09307 -0.901432,3.11519 z m -10.1972909,-4.90418 -5.26307739,0.97969 -5.41404301,12.43514 3.817896,-0.67969 0.552558,-1.5874 1.16153601,-0.22073 -0.506234,2.26797 3.88263299,-1.21958 z m -3.2059525,2.23912 -1.42866889,6.40077 -0.866251,0.19254 z m -17.9201586,-0.20158 2.803404,-0.3519 -0.990538,2.3522 3.027678,-2.50037 1.8128677,1.31501 -4.0742817,3.25975 1.046606,5.67623 -3.083746,1.5656 -0.05607,-5.85273 -1.551217,4.96134 -2.990296,0.70327 z m -0.741493,-1.90769 -2.298791,2.09291 c -0.458344,-2.8634 -3.006504,0.0126 -3.521216,2.89624 -0.389934,2.18456 -0.117334,4.10416 2.624127,1.80817 l 0.672817,2.09291 c -5.164544,5.70107 -7.606601,1.73091 -5.371251,-4.74499 1.838225,-5.32541 7.072276,-7.85073 7.894314,-4.14524 z m -8.123365,-0.12967 -4.560189,0.90761 -4.690994,11.5202 3.308014,-0.62969 0.478764,-1.4706 1.006412,-0.20449 -0.438627,2.1011 3.364104,-1.12985 z m -2.777794,2.07437 -1.237869,5.92982 -0.750563,0.17838 z m -9.754215,-2.62999 2.878161,-0.57416 -1.607285,5.42674 1.383012,-0.3519 1.065294,-4.71552 2.87816,-0.6927 -2.728646,10.89052 -3.102433,1.05572 1.121362,-4.37103 -1.17743,0.40747 -0.635438,3.40792 -2.878161,0.83346 c 0,0 2.803404,-11.3906 2.803404,-11.31652 z m -7.936283,2.27812 -2.833494,0.55564 -1.11853,10.85349 3.253824,-0.75938 1.646891,-5.14892 -0.643367,5.42674 3.302964,-0.90754 3.230428,-10.85349 -2.773962,0.62973 -2.228062,7.90859 1.247699,-8.89022 -1.718193,0.42599 -2.125813,7.29739 z" /><path
       style="fill:none;stroke:#000000;stroke-width:0.2;stroke-linecap:butt;stroke-linejoin:miter;stroke-dasharray:none;stroke-opacity:1"
       d="m -50.46264,115.06926 -1.663894,-8.73624 9.659826,2.66947 5.546311,-5.235 7.117766,3.74958 9.521168,-4.99846 9.706045,5.12822 7.4413027,-3.2853 8.3194692,4.64557 11.0926181,-5.38743 6.054727,1.64788 9.706049,-4.03702 1.247917,4.68788 13.496021,-4.09537 -8.458121,6.8502 c 0,0 8.273246,5.31132 8.458121,5.31457 0.184876,0.004 -10.168235,3.57064 -10.168235,3.57064 l 9.844705,7.04702 -10.029583,0.11528 1.155485,4.72791 -12.49831,-2.53079 -4.668145,2.83414 -6.424479,-3.07083 0.752735,4.25312 -10.5783307,-3.75858 -4.85302259,2.83089 -2.07986801,-2.49452 -9.5211657,3.05944 0.323534,-3.24381 -11.416158,2.9238 1.063044,-4.02235 -8.689223,3.38834 2.033648,-4.13027 -15.021261,2.98539 2.911814,-2.74004 -10.907746,3.391 1.2017,-3.27003 -11.739692,1.08506 10.861527,-5.93308 -7.256424,-4.5019 z"
       id="path27"
       sodipodi:nodetypes="cccccccccccccccsccccccccccccccccccccccccc" /><path
       id="text27"
       style="font-size:4.19642px;line-height:1.25;font-family:'CNC Vector';-inkscape-font-specification:'CNC Vector';letter-spacing:0.183594px;word-spacing:0px;stroke:#000000;stroke-width:0.3;stroke-linecap:round;stroke-linejoin:round"
       transform="scale(1.0045265,0.99549389)"
       d="m -71.171468,99.977198 0.41125,-1.674371 0.436427,1.674371 z m 1.166605,1.221162 -0.755355,-2.895533 -0.713392,2.895533 0.302142,-1.221162 h 0.847677 z m 2.591287,0 v -2.895533 l 0.998748,2.895533 0.994552,-2.895533 v 2.895533 -2.895533 l -0.994552,2.895533 -0.998748,-2.895533 z m 2.869301,-0.32313 q 0,0.13429 0.214017,0.23081 0.218214,0.0923 0.541338,0.0923 0.323125,0 0.537142,-0.0923 0.218214,-0.0965 0.218214,-0.23081 v -2.249279 q 0,-0.134285 -0.218214,-0.226607 -0.214017,-0.09652 -0.537142,-0.09652 -0.323124,0 -0.541338,0.09652 -0.214017,0.09232 -0.214017,0.226607 z m 1.510711,0 q 0,0.13429 -0.218214,0.23081 -0.214017,0.0923 -0.537142,0.0923 -0.323124,0 -0.541338,-0.0923 -0.214017,-0.0965 -0.214017,-0.23081 v -2.249279 q 0,-0.134285 0.214017,-0.226607 0.218214,-0.09652 0.541338,-0.09652 0.323125,0 0.537142,0.09652 0.218214,0.09232 0.218214,0.226607 z m 0.687163,0.32313 v -2.895533 h 0.684016 q 0.314732,0 0.537142,0.09652 0.218214,0.09652 0.218214,0.226607 v 2.249276 q 0,0.13429 -0.218214,0.23081 -0.209821,0.0923 -0.537142,0.0923 z m 0,-2.895533 v 2.895533 h 0.684016 q 0.327321,0 0.537142,-0.0923 0.218214,-0.0965 0.218214,-0.23081 v -2.249279 q 0,-0.130089 -0.218214,-0.226607 -0.22241,-0.09652 -0.537142,-0.09652 z m 2.197874,2.895533 v -1.477143 h 0.684016 q 0.449017,0.03357 0.600088,0.117499 0.155268,0.08393 0.155268,0.193034 v 0.84348 q 0,0.13848 -0.22241,0.23081 -0.218214,0.0923 -0.532946,0.0923 z m 0,-2.895533 v 2.895533 h 0.684016 q 0.314732,0 0.532946,-0.0923 0.22241,-0.0923 0.22241,-0.23081 v -0.84348 q 0,-0.109105 -0.155268,-0.193034 -0.151071,-0.08393 -0.600088,-0.117499 0.440624,-0.02938 0.600088,-0.113304 0.155268,-0.08812 0.155268,-0.197231 v -0.784731 q 0,-0.130089 -0.22241,-0.226607 -0.222411,-0.09652 -0.532946,-0.09652 z m 0.684016,1.41839 h -0.684016 v -1.41839 h 0.684016 q 0.310535,0 0.532946,0.09652 0.22241,0.09652 0.22241,0.226607 v 0.784731 q 0,0.109107 -0.155268,0.197231 -0.159464,0.08393 -0.600088,0.113304 z m 3.024568,1.154013 q 0,0.13429 -0.218214,0.23081 -0.214017,0.0923 -0.537141,0.0923 -0.323125,0 -0.541339,-0.0923 -0.214017,-0.0965 -0.214017,-0.23081 v -2.559814 2.559814 q 0,0.13429 0.214017,0.23081 0.218214,0.0923 0.541339,0.0923 0.323124,0 0.537141,-0.0923 0.218214,-0.0965 0.218214,-0.23081 v -2.559814 z m 0.687163,-0.20562 v 0.20562 q 0,0.13429 0.214017,0.23081 0.218214,0.0923 0.541339,0.0923 0.323124,0 0.537141,-0.0923 0.218214,-0.0965 0.218214,-0.23081 l 0.0084,-0.85607 q -0.0042,-0.386068 -0.583302,-0.390265 -0.57491,-0.0042 -0.675624,-0.03777 -0.260178,-0.09652 -0.260178,-0.247589 v -0.717588 q 0,-0.134285 0.214017,-0.226607 0.218214,-0.09652 0.541339,-0.09652 0.323124,0 0.537141,0.09652 0.218214,0.09232 0.218214,0.226607 v 0.205625 -0.205625 q 0,-0.134285 -0.218214,-0.226607 -0.214017,-0.09652 -0.537141,-0.09652 -0.323125,0 -0.541339,0.09652 -0.214017,0.09232 -0.214017,0.226607 v 0.717588 q 0,0.151071 0.260178,0.247589 0.100714,0.03357 0.675624,0.03777 0.579106,0.0042 0.583302,0.390265 l -0.0084,0.85607 q 0,0.13429 -0.218214,0.23081 -0.214017,0.0923 -0.537141,0.0923 -0.323125,0 -0.541339,-0.0923 -0.214017,-0.0965 -0.214017,-0.23081 z m 2.193679,-0.46161 h 1.430979 z m 2.923855,-1.905173 h -0.725981 1.439372 -0.713391 v 2.895533 z m 2.957423,2.366783 v 0.20562 q 0,0.13429 -0.218213,0.23081 -0.209821,0.0923 -0.537142,0.0923 -0.327321,0 -0.541338,-0.0923 -0.214018,-0.0923 -0.214018,-0.23081 v -2.249279 q 0,-0.134285 0.214018,-0.226607 0.22241,-0.09652 0.541338,-0.09652 0.314731,0 0.537142,0.09652 0.218213,0.09652 0.218213,0.226607 v 0.205625 -0.205625 q 0,-0.130089 -0.218213,-0.226607 -0.222411,-0.09652 -0.537142,-0.09652 -0.318928,0 -0.541338,0.09652 -0.214018,0.09232 -0.214018,0.226607 v 2.249279 q 0,0.13848 0.214018,0.23081 0.214017,0.0923 0.541338,0.0923 0.327321,0 0.537142,-0.0923 0.218213,-0.0965 0.218213,-0.23081 z m 1.366986,-0.960983 q 0.314731,0 0.532945,-0.07973 0.22241,-0.08393 0.22241,-0.218213 v -0.784731 q 0,-0.134285 -0.22241,-0.226607 -0.218214,-0.09652 -0.532945,-0.09652 h -0.684017 v 1.4058 z m -0.684017,1.489733 v -2.895533 h 0.684017 q 0.314731,0 0.532945,0.09652 0.22241,0.09232 0.22241,0.226607 v 0.784731 q 0,0.134285 -0.22241,0.218213 -0.218214,0.07973 -0.532945,0.07973 h -0.684017 z m 4.060034,0 v -2.895533 h 0.684016 q 0.314732,0 0.537142,0.09652 0.218214,0.09652 0.218214,0.226607 v 2.249276 q 0,0.13429 -0.218214,0.23081 -0.209821,0.0923 -0.537142,0.0923 z m 0,-2.895533 v 2.895533 h 0.684016 q 0.327321,0 0.537142,-0.0923 0.218214,-0.0965 0.218214,-0.23081 v -2.249279 q 0,-0.130089 -0.218214,-0.226607 -0.22241,-0.09652 -0.537142,-0.09652 z m 2.197874,2.895533 v -2.895533 h 1.430979 -1.430979 v 1.4058 h 1.229551 -1.229551 v 1.489733 h 1.430979 z m 2.197876,0 v -2.895533 l 0.998748,2.895533 0.994551,-2.895533 v 2.895533 -2.895533 l -0.994551,2.895533 -0.998748,-2.895533 z m 2.869297,-0.32313 q 0,0.13429 0.214017,0.23081 0.218214,0.0923 0.541339,0.0923 0.323124,0 0.537141,-0.0923 0.218214,-0.0965 0.218214,-0.23081 v -2.249279 q 0,-0.134285 -0.218214,-0.226607 -0.214017,-0.09652 -0.537141,-0.09652 -0.323125,0 -0.541339,0.09652 -0.214017,0.09232 -0.214017,0.226607 z m 1.510711,0 q 0,0.13429 -0.218214,0.23081 -0.214017,0.0923 -0.537141,0.0923 -0.323125,0 -0.541339,-0.0923 -0.214017,-0.0965 -0.214017,-0.23081 v -2.249279 q 0,-0.134285 0.214017,-0.226607 0.218214,-0.09652 0.541339,-0.09652 0.323124,0 0.537141,0.09652 0.218214,0.09232 0.218214,0.226607 z m 0.687165,0.32313 v -0.20563 z m 0.855018,0 v -0.20563 z m 0.855023,0 v -0.20563 z" /></g></svg>
