<?xml version="1.0" encoding="UTF-8" standalone="no"?>
<!-- Created with Inkscape (http://www.inkscape.org/) -->

<svg
   width="89.605667mm"
   height="115.12003mm"
   viewBox="0 0 89.605667 115.12003"
   version="1.1"
   id="svg955"
   inkscape:version="1.3 (0e150ed6c4, 2023-07-21)"
   xml:space="preserve"
   sodipodi:docname="pointer.svg"
   xmlns:inkscape="http://www.inkscape.org/namespaces/inkscape"
   xmlns:sodipodi="http://sodipodi.sourceforge.net/DTD/sodipodi-0.dtd"
   xmlns="http://www.w3.org/2000/svg"
   xmlns:svg="http://www.w3.org/2000/svg"><sodipodi:namedview
     id="namedview957"
     pagecolor="#ffffff"
     bordercolor="#666666"
     borderopacity="1.0"
     inkscape:showpageshadow="2"
     inkscape:pageopacity="0.0"
     inkscape:pagecheckerboard="0"
     inkscape:deskcolor="#d1d1d1"
     inkscape:document-units="mm"
     showgrid="false"
     inkscape:zoom="1.3596644"
     inkscape:cx="225.42328"
     inkscape:cy="220.64269"
     inkscape:window-width="3840"
     inkscape:window-height="2081"
     inkscape:window-x="-9"
     inkscape:window-y="-9"
     inkscape:window-maximized="1"
     inkscape:current-layer="layer1" /><defs
     id="defs952" /><g
     inkscape:label="Layer 1"
     inkscape:groupmode="layer"
     id="layer1"
     transform="translate(1.6135937,25.744842)"><path
       id="path23"
       style="fill:#e7ff33;stroke:none;stroke-width:3;stroke-linecap:round;stroke-linejoin:round;stroke-dasharray:none;stroke-opacity:1;fill-opacity:1"
       d="m 47.433024,-24.238474 c -2.836107,0.115444 -5.882726,1.737787 -7.866187,5.07876 -3.435836,5.787375 -5.800266,28.8046455 -4.496883,45.162101 0.275197,3.453722 0.46611,10.666125 -2.6448,20.777543 -0.67836,0.272415 -12.098651,-8.405173 -19.512504,-8.405172 -12.77316371,10e-7 -16.2802093,10.192802 -9.6448889,14.281816 3.8176932,2.352652 17.7911959,3.840548 21.8968549,9.840743 1.101782,1.610194 5.183168,7.213095 10.594185,11.618412 l -0.08423,0.05994 c -5.129756,7.912027 5.39275,13.699422 17.832503,13.699422 12.412424,0 22.606364,-2.249652 16.943152,-10.384896 18.392951,-9.570196 24.51351,-62.256565 -0.939478,-50.875964 -2.544639,-5.652762 -7.162112,-9.869591 -17.094047,-7.17889 -0.40222,-12.8075321 2.40462,-33.488055 2.204517,-37.096444 -0.243088,-4.383515 -3.541769,-6.725804 -7.188192,-6.577376 z" /><path
       id="path28"
       style="fill:#000000;stroke:none;stroke-width:0.264583px;stroke-linecap:butt;stroke-linejoin:miter;stroke-opacity:1;fill-opacity:0.2"
       d="M 47.433025 -24.238474 C 44.596921 -24.12303 41.550297 -22.500684 39.566838 -19.159714 C 36.131006 -13.372345 33.766574 9.6449479 35.069955 26.002387 C 35.345152 29.456106 35.536062 36.668522 32.425155 46.77993 C 32.354707 46.808221 32.143897 46.720825 31.858265 46.575808 C 31.727765 48.224391 31.625104 49.844598 31.626755 51.359496 C 31.626755 51.359496 36.882578 46.732366 38.425823 33.534744 C 38.91734 29.331335 34.791584 -10.352874 48.260365 -24.201267 C 47.985463 -24.219078 47.713263 -24.249881 47.433025 -24.238474 z M 53.054387 19.284968 C 52.97752 19.303892 52.903505 19.318932 52.825977 19.338711 C 52.849798 19.888003 53.077055 25.146858 53.184612 26.903624 C 53.480645 31.738826 61.006511 29.706722 53.054387 19.284968 z M 70.772686 26.128477 C 70.594075 26.195968 70.416707 26.261484 70.234734 26.3357 C 70.278265 27.335854 70.472851 31.838629 70.574765 33.503221 C 70.687906 35.351189 72.568466 39.39308 73.096058 39.136469 C 77.876427 36.428636 73.955927 29.312057 70.772686 26.128477 z M 4.1090544 49.015969 C 2.9343841 49.009067 1.7749848 49.165326 0.60229172 49.518781 L 0.56611821 49.731171 C 1.0980389 50.854115 1.9907578 51.869621 3.2677621 52.656574 C 7.0854515 55.009224 21.058962 56.497128 25.164617 62.497317 C 26.266398 64.107509 30.347791 69.710417 35.758802 74.115729 L 35.67457 74.175674 C 35.399666 74.599679 35.19144 75.014489 35.004326 75.425727 C 35.886176 75.450938 36.808452 75.475996 37.887871 75.474819 C 30.712225 65.221861 28.292217 57.947814 22.539971 55.511697 C 14.574434 52.138236 9.1992925 49.04588 4.1090544 49.015969 z M 35.67922 76.313011 L 35.229119 81.155093 C 37.699258 85.260888 45.158928 87.875096 53.507073 87.875096 C 61.855019 87.875096 69.175453 86.847567 71.367481 83.706358 C 63.358004 84.418613 38.808065 88.082982 35.67922 76.313011 z " /><path
       style="fill:none;stroke:#000000;stroke-width:3;stroke-linecap:round;stroke-linejoin:round;stroke-dasharray:none;stroke-opacity:1"
       d="m 35.674392,74.175929 c -5.129761,7.912035 5.392907,13.699259 17.832672,13.699259 12.439765,0 22.654442,-2.258374 16.908697,-10.437533"
       id="path11"
       sodipodi:nodetypes="czc" /><path
       style="fill:none;stroke:#000000;stroke-width:3;stroke-linecap:round;stroke-linejoin:round;stroke-dasharray:none;stroke-opacity:1"
       d="M 72.590863,37.888993 C 70.573736,29.282031 68.622518,14.991079 52.240239,19.435698"
       id="path7"
       sodipodi:nodetypes="cc" /><path
       style="fill:none;stroke:#000000;stroke-width:3;stroke-linecap:round;stroke-linejoin:round;stroke-dasharray:none;stroke-opacity:1"
       d="M 32.32399,46.791583 C 31.607128,47.052261 20.187058,38.374647 12.773191,38.374648 9.6948071e-7,38.374649 -3.5072046,48.5678 3.1281291,52.656822 6.9458301,55.009478 20.919358,56.497184 25.025025,62.497391 26.705055,64.952662 35.291894,76.709802 45,79.311081 c 3.502839,0.938583 14.571465,0.502316 21.212045,-0.456187 19.802929,-2.85836 31.428322,-61.601151 4.442376,-52.743714"
       id="path5"
       sodipodi:nodetypes="csssssc" /><path
       style="fill:none;stroke:#000000;stroke-width:3;stroke-linecap:round;stroke-linejoin:round;stroke-dasharray:none;stroke-opacity:1"
       d="m 53.829872,28.479001 c -4.040947,-6.993947 0.915346,-41.385531 0.651693,-46.139891 -0.432157,-7.79294 -10.520478,-9.135428 -15.054117,-1.498895 -3.435846,5.787393 -5.80007,28.8048468 -4.496683,45.16235 0.310625,3.898347 0.513278,12.585014 -4.073086,24.807794"
       id="path6"
       sodipodi:nodetypes="csssc" /><path
       style="fill:none;stroke:#000000;stroke-width:3;stroke-linecap:round;stroke-linejoin:round;stroke-dasharray:none;stroke-opacity:1"
       d="m 58.615633,72.066422 c 3.671574,-4.791617 4.415406,-11.869714 3.490549,-17.866333"
       id="path8"
       sodipodi:nodetypes="cc" /><path
       style="fill:none;stroke:#000000;stroke-width:3;stroke-linecap:round;stroke-linejoin:round;stroke-dasharray:none;stroke-opacity:1"
       d="m 65.476283,73.054165 c 3.152844,-3.496583 4.330305,-8.862617 4.936105,-12.424248"
       id="path9"
       sodipodi:nodetypes="cc"
       inkscape:transform-center-x="-2.1503852"
       inkscape:transform-center-y="-5.7783692" /><path
       style="fill:none;stroke:#000000;stroke-width:3;stroke-linecap:round;stroke-linejoin:round;stroke-dasharray:none;stroke-opacity:1"
       d="m 50.843224,71.732579 c 1.799035,-4.350861 1.110493,-9.801241 0.487916,-13.359978"
       id="path10"
       sodipodi:nodetypes="cc"
       inkscape:transform-center-x="-0.42282809"
       inkscape:transform-center-y="-6.1648692" /></g></svg>
